Coordinates
version=1
nRows=16
nColumns=36
inDegrees=yes

Units are S.I. units (second, meters, Newtons, ...)
If the header above contains a line with 'inDegrees', this indicates whether rotational values are in degrees (yes) or radians (no).

endheader
time	pelvis_tilt	pelvis_list	pelvis_rotation	pelvis_tx	pelvis_ty	pelvis_tz	hip_flexion_r	hip_adduction_r	hip_rotation_r	knee_angle_r	knee_angle_r_beta	ankle_angle_r	subtalar_angle_r	mtp_angle_r	hip_flexion_l	hip_adduction_l	hip_rotation_l	knee_angle_l	knee_angle_l_beta	ankle_angle_l	subtalar_angle_l	mtp_angle_l	lumbar_extension	lumbar_bending	lumbar_rotation	arm_flex_r	arm_add_r	arm_rot_r	elbow_flex_r	pro_sup_r	arm_flex_l	arm_add_l	arm_rot_l	elbow_flex_l	pro_sup_l
      2.06666670	     -2.49253963	      3.43623832	      4.28193355	     -0.35819879	      1.31814807	     -0.04089152	     -1.20304092	     -2.95901434	     -8.90361199	      2.67895425	      0.04675657	      5.58241855	     -7.92509364	     -7.49999987	      0.72639892	      2.71924549	     -1.85755788	      2.04745423	      0.03573482	     -2.90242888	    -11.52250321	     -7.49999987	     -7.93890698	     -1.55382104	     -2.69026207	      3.69427047	     -6.15140310	     12.15306164	     27.92064119	     74.70244503	      1.96929969	    -10.40669532	     15.87991702	     30.44331468	     81.38868512
      2.08333330	     -2.48982976	      3.44779118	      4.39604777	     -0.35707019	      1.31762807	     -0.04077885	     -1.08773147	     -2.99429634	     -8.92932917	      2.78818081	      0.04866294	      5.44208364	     -8.07550614	     -7.49999987	      0.76808384	      2.76090509	     -1.77342081	      2.02829658	      0.03540045	     -2.92655698	    -11.53542721	     -7.49999987	     -8.03481435	     -1.49075864	     -2.76528617	      3.69147303	     -6.15259678	     12.19179953	     27.96068343	     74.12841280	      2.05790774	    -10.44759758	     16.33494647	     30.46019588	     80.65680202
      2.10000000	     -2.51569800	      3.47460427	      4.42045349	     -0.35805014	      1.32084565	     -0.04089161	     -0.99528804	     -3.03189610	     -8.85827861	      2.72875698	      0.04762579	      5.20806720	     -8.23305085	     -7.49999987	      0.84065492	      2.83347034	     -1.63502466	      1.95553734	      0.03413057	     -3.14906378	    -11.77381359	     -7.49999987	     -8.11062173	     -1.47422554	     -2.68612804	      3.70873022	     -6.22341558	     12.52168076	     27.91989173	     73.47958841	      2.20548663	    -10.43369006	     16.91552056	     30.46886904	     79.68499777
      2.11666670	     -2.58384353	      3.46406225	      4.49659237	     -0.35707401	      1.31757240	     -0.04076142	     -0.90616084	     -3.02282361	     -8.99152263	      2.66811721	      0.04656743	      5.08917472	     -8.19245094	     -7.49999987	      1.00520525	      2.83575939	     -1.80148625	      2.01899024	      0.03523803	     -2.94276788	    -11.44983895	     -7.49999987	     -8.11964814	     -1.42190450	     -2.72490201	      3.71683493	     -6.24367052	     12.48154496	     27.81214557	     74.41814278	      2.31520968	    -10.42067789	     17.15063336	     30.26855879	     81.08751162
      2.13333330	     -2.71804588	      3.44318753	      4.49180306	     -0.35811433	      1.31516920	     -0.04091180	     -0.72187831	     -3.00095822	     -8.90817716	      2.68580413	      0.04687613	      4.99326448	     -8.46581157	     -7.49999987	      1.22488415	      2.84578279	     -1.57539652	      2.05333997	      0.03583754	     -3.11751654	    -12.01831818	     -7.49999987	     -8.03724056	     -1.38747153	     -2.65845868	      3.67254113	     -6.24442259	     12.43623678	     27.77042561	     75.11212038	      2.31846710	    -10.34539251	     16.84581506	     30.33887600	     82.11079896
      2.15000000	     -2.68886483	      3.46541795	      4.45804265	     -0.35717239	      1.31765739	     -0.04064518	     -0.75421778	     -3.00297845	     -9.00652646	      2.68234614	      0.04681577	      5.12005427	     -8.32121761	     -7.49999987	      1.21739080	      2.84048440	     -1.86775495	      2.11272294	      0.03687397	     -2.98596518	    -11.83208944	     -7.49999987	     -8.14238785	     -1.40421670	     -2.59419164	      3.56060535	     -6.15972844	     11.49602376	     27.96504213	     77.24476726	      2.01631360	    -10.17890865	     15.37278014	     30.76485226	     85.44335638
      2.16666670	     -2.74349291	      3.47478398	      4.45008604	     -0.35794496	      1.31813591	     -0.04066874	     -0.69488002	     -3.03564966	     -8.97999114	      2.69367046	      0.04701342	      5.30938345	     -8.23622641	     -7.49999987	      1.27731497	      2.86094257	     -1.79417644	      2.12328267	      0.03705827	     -3.08546307	    -12.24889506	     -7.49999987	     -8.13100664	     -1.38248982	     -2.56587066	      3.56460587	     -6.19385286	     11.91705144	     27.95793069	     75.18259366	      1.92056535	    -10.18242436	     15.87024884	     30.95541038	     82.32653669
      2.18333330	     -2.73750525	      3.48029470	      4.47294947	     -0.35705776	      1.32040446	     -0.04063279	     -0.75750452	     -3.05570206	     -8.96946492	      2.64468496	      0.04615846	      5.41500906	     -8.07722393	     -7.49999987	      1.27299142	      2.85048959	     -1.84784574	      2.14887588	      0.03750496	     -2.98906567	    -12.11464525	     -7.49999987	     -8.14432591	     -1.36826217	     -2.62283870	      3.55899338	     -6.09731984	     11.34090528	     27.82418954	     77.36043672	      1.86727488	    -10.11716936	     15.24846011	     30.89999201	     85.64676013
      2.20000000	     -2.79683935	      3.48400795	      4.47145331	     -0.35785847	      1.31794725	     -0.04068098	     -0.69084868	     -3.07353963	     -8.78867203	      2.67776592	      0.04673583	      5.52803945	     -8.19011273	     -7.49999987	      1.34704686	      2.87046582	     -1.80445793	      2.14157947	      0.03737761	     -3.00484530	    -12.28441395	     -7.49999987	     -8.08395290	     -1.35019932	     -2.64519280	      3.74139543	     -6.14857204	     11.99580011	     27.69390589	     74.68124807	      1.95992597	    -10.17105999	     16.13838759	     30.71819476	     82.06836956
      2.21666670	     -2.78941408	      3.49234619	      4.60765395	     -0.35704750	      1.31752450	     -0.04063599	     -0.77758577	     -3.08376607	     -8.72828186	      2.64384761	      0.04614385	      5.50362061	     -8.31509374	     -7.49999987	      1.32290924	      2.87835338	     -1.64712271	      2.15899501	      0.03768157	     -3.12693693	    -12.42691170	     -7.49999987	     -8.04618974	     -1.33354421	     -2.61803465	      3.76501272	     -6.29087823	     12.34793896	     27.70858279	     75.20287255	      2.07979313	    -10.26122172	     16.85826586	     30.60042464	     82.63290537
      2.23333330	     -2.76640845	      3.48548939	      4.68191351	     -0.35097502	      1.31780385	     -0.03818474	     -0.91582547	     -3.05607335	     -8.69408587	      2.68750249	      0.04690577	      5.49261041	     -8.31139969	     -7.49999987	      1.25303436	      2.82850979	     -1.56172347	      2.17501928	      0.03796125	     -3.11797111	    -12.37884553	     -7.49999987	     -7.98281426	     -1.36577561	     -2.58165489	      3.69166125	     -6.26317589	     12.34131351	     27.70075211	     75.20978154	      1.97943323	    -10.30347318	     16.84677234	     30.57221442	     82.64173529
      2.25000000	     -2.77435745	      3.50725030	      4.61767486	     -0.35711213	      1.31743229	     -0.04071169	     -0.89425512	     -3.10557212	     -8.73419214	      2.67164100	      0.04662893	      5.51782373	     -8.39332878	     -7.49999987	      1.21456843	      2.89155261	     -1.15116605	      2.04604380	      0.03571020	     -2.94804670	    -12.18609402	     -7.49999987	     -7.97458769	     -1.37379507	     -2.55140853	      3.65681391	     -6.25348974	     12.31789845	     27.70305026	     75.22559027	      1.93121550	    -10.33400191	     16.82787813	     30.56996520	     82.66425386
      2.26666670	     -2.65932658	      3.48181613	      4.68615371	     -0.35062117	      1.31786370	     -0.03835464	     -1.18100467	     -2.99911180	     -8.78915651	      2.48590434	      0.04338722	      5.34706046	     -8.55836509	     -7.49999987	      0.97040161	      2.85795503	     -0.83660650	      1.86729749	      0.03259049	     -2.82672164	    -11.71499271	     -7.49999987	     -7.88912057	     -1.40032147	     -2.71206979	      3.46006041	     -6.20613379	     12.23075821	     27.77253920	     75.26749382	      1.76972919	    -10.39069821	     16.79442990	     30.56607429	     82.73027153
      2.28333330	     -2.66524274	      3.47590972	      4.55297356	     -0.35705862	      1.32010042	     -0.04077333	     -1.13765704	     -2.99528873	     -8.84693118	      2.47418313	      0.04318264	      5.31205026	     -8.58200474	     -7.49999987	      1.00427732	      2.88155273	     -0.79209436	      1.83021834	      0.03194334	     -2.81445778	    -11.66299792	     -7.49999987	     -7.90981152	     -1.38883982	     -2.72274649	      3.45937110	     -6.20476831	     12.22420286	     27.78544049	     75.27176748	      1.77571341	    -10.41063575	     16.78999582	     30.56775612	     82.73643035
      2.30000000	     -2.61896305	      3.49375110	      4.53035909	     -0.35062875	      1.32023139	     -0.03815232	     -1.29401809	     -2.95088062	     -8.94511448	      2.30885198	      0.04029707	      4.98519436	     -8.66019859	     -7.49999987	      0.83282032	      2.88077795	     -0.60432714	      1.63736793	      0.02857746	     -2.77027600	    -11.13579279	     -7.49999987	     -7.84753153	     -1.45769939	     -2.78872004	      3.26322358	     -6.12062805	     12.17651838	     27.89177624	     75.32296365	      1.55397907	    -10.48917855	     16.77752922	     30.55498246	     82.80553443
      2.31666670	     -2.51129196	      3.48162026	      4.50723705	     -0.35028872	      1.31690739	     -0.03801899	     -1.53188727	     -2.83441079	     -8.68842365	      2.19402180	      0.03829290	      4.59716434	     -9.32100790	     -7.49999987	      0.61930750	      2.82928777	     -0.90106100	      1.65197495	      0.02883240	     -2.01320224	     -9.86572030	     -7.49999987	     -7.86958809	     -1.44854645	     -2.73238169	      3.05433888	     -6.05931387	     11.90017846	     28.08956957	     75.09928720	      1.38666595	    -10.46856889	     16.61527791	     30.66626014	     82.45068152
